<?xml version="1.0" standalone="no"?>
<!DOCTYPE svg PUBLIC "-//W3C//DTD SVG 20010904//EN"
 "http://www.w3.org/TR/2001/REC-SVG-20010904/DTD/svg10.dtd">
<svg version="1.0" xmlns="http://www.w3.org/2000/svg"
 width="512.000000pt" height="512.000000pt" viewBox="0 0 512.000000 512.000000"
 preserveAspectRatio="xMidYMid meet">
<metadata>
Created by potrace 1.14, written by Peter Selinger 2001-2017
</metadata>
<g transform="translate(0.000000,512.000000) scale(0.100000,-0.100000)"
fill="#000000" stroke="none">
<path d="M3221 4784 c-18 -23 -21 -41 -21 -131 0 -97 2 -106 25 -128 29 -30
74 -32 106 -6 23 18 24 25 24 136 0 111 -1 118 -24 136 -35 28 -85 25 -110 -7z"/>
<path d="M4293 4582 c-13 -2 -32 -15 -43 -29 -61 -78 35 -174 112 -113 68 53
17 156 -69 142z"/>
<path d="M2901 4464 c-28 -35 -26 -69 4 -99 23 -24 31 -25 133 -25 130 0 156
12 156 73 0 67 -20 77 -155 77 -115 0 -118 -1 -138 -26z"/>
<path d="M3381 4464 c-28 -35 -26 -69 4 -99 22 -23 31 -25 129 -25 57 0 112 3
121 6 24 10 46 60 39 89 -11 46 -38 55 -160 55 -110 0 -113 -1 -133 -26z"/>
<path d="M3221 4304 c-18 -23 -21 -41 -21 -131 0 -97 2 -106 25 -128 45 -45
115 -24 131 39 3 14 4 66 3 115 -5 106 -20 131 -80 131 -29 0 -42 -6 -58 -26z"/>
<path d="M677 3948 c-9 -7 -21 -26 -27 -41 -13 -37 -14 -1643 0 -1824 46 -601
359 -1132 865 -1466 225 -148 467 -241 750 -287 148 -25 410 -27 564 -5 759
108 1384 665 1580 1406 58 218 59 252 66 1240 6 794 5 911 -9 942 -16 39 -47
54 -88 43 -13 -3 -203 -157 -424 -343 -220 -186 -408 -344 -417 -352 -14 -11
-20 -10 -40 5 -303 238 -529 324 -852 324 -297 0 -580 -102 -802 -288 l-71
-61 -449 316 c-246 174 -477 335 -512 359 -65 45 -104 54 -134 32z m587 -541
c243 -171 455 -318 471 -329 50 -30 69 -23 153 54 310 288 726 379 1117 245
145 -50 282 -134 418 -256 44 -40 77 -61 93 -61 24 0 58 27 599 483 l200 169
3 -769 c3 -701 -4 -972 -24 -1005 -3 -4 -111 -8 -241 -8 -229 0 -237 -1 -260
-22 -30 -28 -30 -74 -1 -105 21 -23 24 -23 245 -23 123 0 223 -4 223 -9 0 -9
-14 -56 -37 -118 l-15 -43 -356 0 c-351 0 -356 0 -379 -22 -30 -28 -30 -74 -1
-105 l21 -23 324 0 c178 0 323 -4 323 -8 0 -19 -108 -194 -170 -277 -133 -177
-271 -307 -455 -428 -433 -285 -994 -359 -1497 -197 -145 47 -376 167 -502
261 -123 92 -263 228 -349 341 -51 67 -190 288 -184 294 4 4 320 13 484 13
154 1 163 2 183 23 26 29 26 76 -2 105 l-21 23 -358 0 -358 0 -25 77 -24 78
216 5 c120 3 225 9 235 14 42 20 50 90 14 124 -22 21 -33 22 -262 24 l-240 3
-9 45 c-4 25 -10 429 -13 898 -3 670 -2 852 8 846 7 -4 211 -147 453 -317z"/>
<path d="M1916 2376 c-98 -59 -117 -196 -38 -280 66 -70 182 -74 256 -8 46 41
69 138 45 199 -37 100 -171 145 -263 89z"/>
<path d="M3031 2382 c-134 -68 -132 -262 3 -323 175 -79 339 135 213 278 -55
63 -145 82 -216 45z"/>
<path d="M2463 1900 c-168 -30 -273 -119 -273 -229 0 -56 33 -152 80 -231 44
-76 143 -174 197 -197 54 -23 139 -20 196 7 122 58 267 288 267 424 -1 87 -79
170 -196 206 -77 23 -199 32 -271 20z"/>
</g>
</svg>
